<svg width="33" height="29" viewBox="0 0 33 29" fill="none" xmlns="http://www.w3.org/2000/svg">
<g clip-path="url(#clip0_102_3)">
<path d="M25.2656 0H7.73438C3.4628 0 0 3.04306 0 6.79688V22.2031C0 25.9569 3.4628 29 7.73438 29H25.2656C29.5372 29 33 25.9569 33 22.2031V6.79688C33 3.04306 29.5372 0 25.2656 0Z" fill="url(#paint0_radial_102_3)"/>
<path d="M25.2656 0H7.73438C3.4628 0 0 3.04306 0 6.79688V22.2031C0 25.9569 3.4628 29 7.73438 29H25.2656C29.5372 29 33 25.9569 33 22.2031V6.79688C33 3.04306 29.5372 0 25.2656 0Z" fill="url(#paint1_radial_102_3)"/>
<path d="M16.5012 3.17188C13.0003 3.17188 12.5609 3.18536 11.186 3.2403C9.81363 3.29558 8.87687 3.48646 8.05729 3.7666C7.20934 4.05592 6.49017 4.443 5.77371 5.07285C5.05661 5.70258 4.61613 6.33457 4.28588 7.0794C3.96619 7.79987 3.74872 8.62342 3.68698 9.82885C3.62549 11.0372 3.60938 11.4235 3.60938 14.5001C3.60938 17.5767 3.62484 17.9616 3.68723 19.1699C3.7504 20.3759 3.96761 21.1991 4.28613 21.9194C4.61562 22.6645 5.05609 23.2965 5.77281 23.9261C6.48914 24.5563 7.20831 24.9443 8.05561 25.2336C8.87584 25.5138 9.81273 25.7046 11.1848 25.7599C12.5599 25.8149 12.9989 25.8284 16.4996 25.8284C20.0008 25.8284 20.4389 25.8149 21.8138 25.7599C23.1861 25.7046 24.1239 25.5138 24.9441 25.2336C25.7917 24.9443 26.5098 24.5563 27.226 23.9261C27.9431 23.2965 28.3835 22.6645 28.7139 21.9197C29.0307 21.1991 29.2483 20.3757 29.3128 19.1701C29.3745 17.9619 29.3906 17.5767 29.3906 14.5001C29.3906 11.4235 29.3745 11.0374 29.3128 9.82907C29.2483 8.62308 29.0307 7.79998 28.7139 7.07974C28.3835 6.33457 27.9431 5.70258 27.226 5.07285C26.5091 4.44278 25.7919 4.0557 24.9434 3.76671C24.1216 3.48646 23.1843 3.29546 21.812 3.2403C20.4369 3.18536 19.9992 3.17188 16.4972 3.17188H16.5012ZM15.3447 5.21332C15.688 5.21286 16.071 5.21332 16.5012 5.21332C19.9431 5.21332 20.3509 5.22419 21.7101 5.27845C22.967 5.32898 23.6491 5.51351 24.1035 5.66859C24.7051 5.87386 25.134 6.11934 25.5849 6.51594C26.0361 6.91242 26.3153 7.28999 26.5495 7.81867C26.726 8.21742 26.9363 8.81691 26.9935 9.9214C27.0552 11.1156 27.0686 11.4743 27.0686 14.4975C27.0686 17.5208 27.0552 17.8795 26.9935 19.0736C26.936 20.1781 26.726 20.7776 26.5495 21.1765C26.316 21.7051 26.0361 22.0816 25.5849 22.4778C25.1338 22.8743 24.7054 23.1197 24.1035 23.3251C23.6497 23.4808 22.967 23.6649 21.7101 23.7154C20.3512 23.7697 19.9431 23.7815 16.5012 23.7815C13.0591 23.7815 12.6511 23.7697 11.2923 23.7154C10.0355 23.6645 9.35331 23.4799 8.89853 23.3248C8.29705 23.1195 7.86728 22.8741 7.41611 22.4776C6.96493 22.0811 6.68572 21.7045 6.4515 21.1756C6.27503 20.7767 6.06478 20.1772 6.00755 19.0727C5.9458 17.8785 5.93343 17.5199 5.93343 14.4947C5.93343 11.4696 5.9458 11.1128 6.00755 9.91857C6.06504 8.81407 6.27503 8.21459 6.4515 7.81527C6.68521 7.28659 6.96493 6.90902 7.41623 6.51254C7.86741 6.11605 8.29705 5.87057 8.89866 5.66486C9.35305 5.50909 10.0355 5.32501 11.2923 5.27426C12.4815 5.22702 12.9423 5.21286 15.3447 5.21048V5.21332ZM23.3822 7.09424C22.5282 7.09424 21.8353 7.70256 21.8353 8.45316C21.8353 9.20365 22.5282 9.81254 23.3822 9.81254C24.2362 9.81254 24.9291 9.20365 24.9291 8.45316C24.9291 7.70267 24.2362 7.09378 23.3822 7.09378V7.09424ZM16.5012 8.68256C12.8454 8.68256 9.88131 11.2873 9.88131 14.5001C9.88131 17.7129 12.8454 20.3164 16.5012 20.3164C20.1571 20.3164 23.1201 17.7129 23.1201 14.5001C23.1201 11.2875 20.1568 8.68256 16.5009 8.68256H16.5012ZM16.5012 10.724C18.8742 10.724 20.7981 12.4145 20.7981 14.5001C20.7981 16.5855 18.8742 18.2762 16.5012 18.2762C14.128 18.2762 12.2043 16.5855 12.2043 14.5001C12.2043 12.4145 14.128 10.724 16.5012 10.724Z" fill="white"/>
</g>
<defs>
<radialGradient id="paint0_radial_102_3" cx="0" cy="0" r="1" gradientUnits="userSpaceOnUse" gradientTransform="translate(8.76562 31.2336) rotate(-90) scale(28.7412 30.4187)">
<stop stop-color="#FFDD55"/>
<stop offset="0.1" stop-color="#FFDD55"/>
<stop offset="0.5" stop-color="#FF543E"/>
<stop offset="1" stop-color="#C837AB"/>
</radialGradient>
<radialGradient id="paint1_radial_102_3" cx="0" cy="0" r="1" gradientUnits="userSpaceOnUse" gradientTransform="translate(-5.52763 2.08902) rotate(77.1685) scale(12.9202 59.9227)">
<stop stop-color="#3771C8"/>
<stop offset="0.128" stop-color="#3771C8"/>
<stop offset="1" stop-color="#6600FF" stop-opacity="0"/>
</radialGradient>
<clipPath id="clip0_102_3">
<rect width="33" height="29" fill="white"/>
</clipPath>
</defs>
</svg>
